<svg width="30" height="30" viewBox="0 0 30 30" fill="none" xmlns="http://www.w3.org/2000/svg">
<path d="M0.5 2.79167C0.5 2.18388 0.741443 1.60098 1.17121 1.17121C1.60098 0.741443 2.18388 0.5 2.79167 0.5H13.2083C13.8161 0.5 14.399 0.741443 14.8288 1.17121C15.2586 1.60098 15.5 2.18388 15.5 2.79167V8.01833C14.9883 7.69043 14.4248 7.4515 13.8333 7.31167V2.79167C13.8333 2.62591 13.7675 2.46694 13.6503 2.34972C13.5331 2.23251 13.3741 2.16667 13.2083 2.16667H2.79167C2.62591 2.16667 2.46694 2.23251 2.34972 2.34972C2.23251 2.46694 2.16667 2.62591 2.16667 2.79167V13.2083C2.16667 13.5533 2.44667 13.8333 2.79167 13.8333H7.31167C7.45333 14.4333 7.695 14.9958 8.01833 15.5H2.79167C2.18388 15.5 1.60098 15.2586 1.17121 14.8288C0.741443 14.399 0.5 13.8161 0.5 13.2083V2.79167ZM17.1667 12.5833C17.1667 11.3678 16.6838 10.202 15.8242 9.34243C14.9647 8.48288 13.7989 8 12.5833 8C11.3678 8 10.202 8.48288 9.34243 9.34243C8.48288 10.202 8 11.3678 8 12.5833C8 13.7989 8.48288 14.9647 9.34243 15.8242C10.202 16.6838 11.3678 17.1667 12.5833 17.1667C13.7989 17.1667 14.9647 16.6838 15.8242 15.8242C16.6838 14.9647 17.1667 13.7989 17.1667 12.5833ZM13 13L13.0008 15.0858C13.0008 15.1963 12.9569 15.3023 12.8788 15.3805C12.8007 15.4586 12.6947 15.5025 12.5842 15.5025C12.4737 15.5025 12.3677 15.4586 12.2895 15.3805C12.2114 15.3023 12.1675 15.1963 12.1675 15.0858V13H10.08C9.96949 13 9.86351 12.9561 9.78537 12.878C9.70723 12.7998 9.66333 12.6938 9.66333 12.5833C9.66333 12.4728 9.70723 12.3668 9.78537 12.2887C9.86351 12.2106 9.96949 12.1667 10.08 12.1667H12.1667V10.0833C12.1667 9.97283 12.2106 9.86685 12.2887 9.7887C12.3668 9.71056 12.4728 9.66667 12.5833 9.66667C12.6938 9.66667 12.7998 9.71056 12.878 9.7887C12.9561 9.86685 13 9.97283 13 10.0833V12.1667H15.0808C15.1913 12.1667 15.2973 12.2106 15.3755 12.2887C15.4536 12.3668 15.4975 12.4728 15.4975 12.5833C15.4975 12.6938 15.4536 12.7998 15.3755 12.878C15.2973 12.9561 15.1913 13 15.0808 13H13Z" fill="#333333"/>
</svg>
