<svg width="13" height="12" viewBox="0 0 13 12" fill="none" xmlns="http://www.w3.org/2000/svg">
<path d="M3.58341 6.87496C3.82647 6.87496 4.03316 6.78979 4.2035 6.61946C4.37383 6.44913 4.4588 6.24263 4.45841 5.99996C4.45841 5.7569 4.37325 5.55021 4.20291 5.37988C4.03258 5.20954 3.82608 5.12457 3.58341 5.12496C3.34036 5.12496 3.13366 5.21013 2.96333 5.38046C2.793 5.55079 2.70803 5.75729 2.70841 5.99996C2.70841 6.24301 2.79358 6.44971 2.96391 6.62004C3.13425 6.79038 3.34075 6.87535 3.58341 6.87496ZM6.50008 6.87496C6.74314 6.87496 6.94983 6.78979 7.12016 6.61946C7.2905 6.44913 7.37547 6.24263 7.37508 5.99996C7.37508 5.7569 7.28991 5.55021 7.11958 5.37988C6.94925 5.20954 6.74275 5.12457 6.50008 5.12496C6.25703 5.12496 6.05033 5.21013 5.88 5.38046C5.70966 5.55079 5.62469 5.75729 5.62508 5.99996C5.62508 6.24301 5.71025 6.44971 5.88058 6.62004C6.05091 6.79038 6.25741 6.87535 6.50008 6.87496ZM9.41675 6.87496C9.6598 6.87496 9.8665 6.78979 10.0368 6.61946C10.2072 6.44913 10.2921 6.24263 10.2917 5.99996C10.2917 5.7569 10.2066 5.55021 10.0362 5.37988C9.86591 5.20954 9.65941 5.12457 9.41675 5.12496C9.17369 5.12496 8.967 5.21013 8.79666 5.38046C8.62633 5.55079 8.54136 5.75729 8.54175 5.99996C8.54175 6.24301 8.62691 6.44971 8.79725 6.62004C8.96758 6.79038 9.17408 6.87535 9.41675 6.87496ZM6.50008 11.8333C5.69314 11.8333 4.9348 11.6801 4.22508 11.3736C3.51536 11.0672 2.898 10.6517 2.373 10.127C1.848 9.60204 1.43247 8.98468 1.12641 8.27496C0.820359 7.56524 0.667137 6.8069 0.666748 5.99996C0.666748 5.19301 0.81997 4.43468 1.12641 3.72496C1.43286 3.01524 1.84839 2.39788 2.373 1.87288C2.898 1.34788 3.51536 0.932348 4.22508 0.626293C4.9348 0.320237 5.69314 0.167015 6.50008 0.166626C7.30703 0.166626 8.06536 0.319848 8.77508 0.626293C9.4848 0.932737 10.1022 1.34826 10.6272 1.87288C11.1522 2.39788 11.5679 3.01524 11.8743 3.72496C12.1808 4.43468 12.3338 5.19301 12.3334 5.99996C12.3334 6.8069 12.1802 7.56524 11.8737 8.27496C11.5673 8.98468 11.1518 9.60204 10.6272 10.127C10.1022 10.652 9.4848 11.0678 8.77508 11.3742C8.06536 11.6807 7.30703 11.8337 6.50008 11.8333Z" fill="white"/>
</svg>
