<svg width="34" height="28" viewBox="0 0 34 28" fill="none" xmlns="http://www.w3.org/2000/svg">
<path fill-rule="evenodd" clip-rule="evenodd" d="M13.6668 0.666504H20.3335C26.6185 0.666504 29.7618 0.666504 31.7135 2.61984C33.6668 4.5715 33.6668 7.71484 33.6668 13.9998C33.6668 20.2848 33.6668 23.4282 31.7135 25.3798C29.7618 27.3332 26.6185 27.3332 20.3335 27.3332H13.6668C7.38183 27.3332 4.2385 27.3332 2.28683 25.3798C0.333496 23.4282 0.333496 20.2848 0.333496 13.9998C0.333496 7.71484 0.333496 4.5715 2.28683 2.61984C4.2385 0.666504 7.38183 0.666504 13.6668 0.666504ZM19.0835 8.99984C19.0835 8.66832 19.2152 8.35037 19.4496 8.11595C19.684 7.88153 20.002 7.74984 20.3335 7.74984H28.6668C28.9984 7.74984 29.3163 7.88153 29.5507 8.11595C29.7851 8.35037 29.9168 8.66832 29.9168 8.99984C29.9168 9.33136 29.7851 9.6493 29.5507 9.88372C29.3163 10.1181 28.9984 10.2498 28.6668 10.2498H20.3335C20.002 10.2498 19.684 10.1181 19.4496 9.88372C19.2152 9.6493 19.0835 9.33136 19.0835 8.99984ZM20.7502 13.9998C20.7502 13.6683 20.8819 13.3504 21.1163 13.116C21.3507 12.8815 21.6686 12.7498 22.0002 12.7498H28.6668C28.9984 12.7498 29.3163 12.8815 29.5507 13.116C29.7851 13.3504 29.9168 13.6683 29.9168 13.9998C29.9168 14.3314 29.7851 14.6493 29.5507 14.8837C29.3163 15.1181 28.9984 15.2498 28.6668 15.2498H22.0002C21.6686 15.2498 21.3507 15.1181 21.1163 14.8837C20.8819 14.6493 20.7502 14.3314 20.7502 13.9998ZM22.4168 18.9998C22.4168 18.6683 22.5485 18.3504 22.7829 18.116C23.0174 17.8815 23.3353 17.7498 23.6668 17.7498H28.6668C28.9984 17.7498 29.3163 17.8815 29.5507 18.116C29.7851 18.3504 29.9168 18.6683 29.9168 18.9998C29.9168 19.3314 29.7851 19.6493 29.5507 19.8837C29.3163 20.1181 28.9984 20.2498 28.6668 20.2498H23.6668C23.3353 20.2498 23.0174 20.1181 22.7829 19.8837C22.5485 19.6493 22.4168 19.3314 22.4168 18.9998ZM15.3335 8.99984C15.3335 9.88389 14.9823 10.7317 14.3572 11.3569C13.7321 11.982 12.8842 12.3332 12.0002 12.3332C11.1161 12.3332 10.2683 11.982 9.64314 11.3569C9.01802 10.7317 8.66683 9.88389 8.66683 8.99984C8.66683 8.11578 9.01802 7.26794 9.64314 6.64281C10.2683 6.01769 11.1161 5.6665 12.0002 5.6665C12.8842 5.6665 13.7321 6.01769 14.3572 6.64281C14.9823 7.26794 15.3335 8.11578 15.3335 8.99984ZM12.0002 22.3332C18.6668 22.3332 18.6668 20.8415 18.6668 18.9998C18.6668 17.1582 15.6835 15.6665 12.0002 15.6665C8.31683 15.6665 5.3335 17.1582 5.3335 18.9998C5.3335 20.8415 5.3335 22.3332 12.0002 22.3332Z" fill="#3DA796"/>
</svg>
